HIERARCHY
ROOT hip
{
  OFFSET 41.6479 15.7262 -80.0985
  CHANNELS 6 Xposition Yposition Zposition Zrotation Xrotation Yrotation
  JOINT abdomen
  {
    OFFSET 0 20.6881 -0.73152
    CHANNELS 3 Zrotation Xrotation Yrotation
    JOINT chest
    {
      OFFSET 0 11.7043 -0.48768
      CHANNELS 3 Zrotation Xrotation Yrotation
      JOINT neck
      {
        OFFSET 0 22.1894 -2.19456
        CHANNELS 3 Zrotation Xrotation Yrotation
        JOINT head
        {
          OFFSET -0.24384 7.07133 1.2192
          CHANNELS 3 Zrotation Xrotation Yrotation
          JOINT leftEye
          {
            OFFSET 4.14528 8.04674 8.04672
            CHANNELS 3 Zrotation Xrotation Yrotation
            End Site
            {
              OFFSET 1 0 0
            }
          }
          JOINT rightEye
          {
            OFFSET -3.6576 8.04674 8.04672
            CHANNELS 3 Zrotation Xrotation Yrotation
            End Site
            {
              OFFSET 1 0 0
            }
          }
        }
      }
      JOINT rCollar
      {
        OFFSET -2.68224 19.2634 -4.8768
        CHANNELS 3 Zrotation Xrotation Yrotation
        JOINT rShldr
        {
          OFFSET -8.77824 -1.95073 1.46304
          CHANNELS 3 Zrotation Xrotation Yrotation
          JOINT rForeArm
          {
            OFFSET -28.1742 -1.7115 0.48768
            CHANNELS 3 Zrotation Xrotation Yrotation
            JOINT rHand
            {
              OFFSET -22.5879 0.773209 7.07136
              CHANNELS 3 Zrotation Xrotation Yrotation
              JOINT rThumb1
              {
                OFFSET -1.2192 -0.487915 3.41376
                CHANNELS 3 Zrotation Xrotation Yrotation
                JOINT rThumb2
                {
                  OFFSET -3.37035 -0.52449 3.41376
                  CHANNELS 3 Zrotation Xrotation Yrotation
                  End Site
                  {
                    OFFSET -1.78271 -1.18214 1.43049
                  }
                }
              }
              JOINT rIndex1
              {
                OFFSET -7.75947 0.938293 5.60832
                CHANNELS 3 Zrotation Xrotation Yrotation
                JOINT rIndex2
                {
                  OFFSET -2.54057 -0.884171 1.56538
                  CHANNELS 3 Zrotation Xrotation Yrotation
                  End Site
                  {
                    OFFSET -1.62519 -0.234802 1.16502
                  }
                }
              }
              JOINT rMid1
              {
                OFFSET -8.24714 1.18213 3.41376
                CHANNELS 3 Zrotation Xrotation Yrotation
                JOINT rMid2
                {
                  OFFSET -3.10165 -0.590103 1.0647
                  CHANNELS 3 Zrotation Xrotation Yrotation
                  End Site
                  {
                    OFFSET -2.48547 -0.328903 0.83742
                  }
                }
              }
              JOINT rRing1
              {
                OFFSET -8.82822 0.546677 1.51678
                CHANNELS 3 Zrotation Xrotation Yrotation
                JOINT rRing2
                {
                  OFFSET -2.60934 -0.819778 -0.0198488
                  CHANNELS 3 Zrotation Xrotation Yrotation
                  End Site
                  {
                    OFFSET -2.33842 -0.294052 0.168128
                  }
                }
              }
              JOINT rPinky1
              {
                OFFSET -8.27202 -0.0477905 -0.4584
                CHANNELS 3 Zrotation Xrotation Yrotation
                JOINT rPinky2
                {
                  OFFSET -1.82734 -0.647385 -0.700984
                  CHANNELS 3 Zrotation Xrotation Yrotation
                  End Site
                  {
                    OFFSET -1.69225 -0.51767 -0.607171
                  }
                }
              }
            }
          }
        }
      }
      JOINT lCollar
      {
        OFFSET 2.68224 19.2634 -4.8768
        CHANNELS 3 Zrotation Xrotation Yrotation
        JOINT lShldr
        {
          OFFSET 8.77824 -1.95073 1.46304
          CHANNELS 3 Zrotation Xrotation Yrotation
          JOINT lForeArm
          {
            OFFSET 28.1742 -1.7115 0.48768
            CHANNELS 3 Zrotation Xrotation Yrotation
            JOINT lHand
            {
              OFFSET 22.5879 0.773209 7.07136
              CHANNELS 3 Zrotation Xrotation Yrotation
              JOINT lThumb1
              {
                OFFSET 1.2192 -0.487915 3.41376
                CHANNELS 3 Zrotation Xrotation Yrotation
                JOINT lThumb2
                {
                  OFFSET 3.37035 -0.52449 3.41376
                  CHANNELS 3 Zrotation Xrotation Yrotation
                  End Site
                  {
                    OFFSET 1.78271 -1.18214 1.43049
                  }
                }
              }
              JOINT lIndex1
              {
                OFFSET 7.75947 0.938293 5.60832
                CHANNELS 3 Zrotation Xrotation Yrotation
                JOINT lIndex2
                {
                  OFFSET 2.54057 -0.884171 1.56538
                  CHANNELS 3 Zrotation Xrotation Yrotation
                  End Site
                  {
                    OFFSET 1.62519 -0.234802 1.16502
                  }
                }
              }
              JOINT lMid1
              {
                OFFSET 8.24714 1.18213 3.41376
                CHANNELS 3 Zrotation Xrotation Yrotation
                JOINT lMid2
                {
                  OFFSET 3.10165 -0.590103 1.0647
                  CHANNELS 3 Zrotation Xrotation Yrotation
                  End Site
                  {
                    OFFSET 2.48547 -0.328903 0.83742
                  }
                }
              }
              JOINT lRing1
              {
                OFFSET 8.82822 0.546677 1.51678
                CHANNELS 3 Zrotation Xrotation Yrotation
                JOINT lRing2
                {
                  OFFSET 2.60934 -0.819778 -0.0198488
                  CHANNELS 3 Zrotation Xrotation Yrotation
                  End Site
                  {
                    OFFSET 2.33842 -0.294052 0.168128
                  }
                }
              }
              JOINT lPinky1
              {
                OFFSET 8.27202 -0.0477905 -0.4584
                CHANNELS 3 Zrotation Xrotation Yrotation
                JOINT lPinky2
                {
                  OFFSET 1.82734 -0.647385 -0.700984
                  CHANNELS 3 Zrotation Xrotation Yrotation
                  End Site
                  {
                    OFFSET 1.69225 -0.51767 -0.607171
                  }
                }
              }
            }
          }
        }
      }
    }
  }
  JOINT rButtock
  {
    OFFSET -8.77824 4.35084 1.2192
    CHANNELS 3 Zrotation Xrotation Yrotation
    JOINT rThigh
    {
      OFFSET 0 -1.70687 -2.19456
      CHANNELS 3 Zrotation Xrotation Yrotation
      JOINT rShin
      {
        OFFSET 0 -36.8199 0.73152
        CHANNELS 3 Zrotation Xrotation Yrotation
        JOINT rFoot
        {
          OFFSET 0.73152 -45.1104 -5.12064
          CHANNELS 3 Zrotation Xrotation Yrotation
          End Site
          {
            OFFSET -1.1221 -3.69964 12.103
          }
        }
      }
    }
  }
  JOINT lButtock
  {
    OFFSET 8.77824 4.35084 1.2192
    CHANNELS 3 Zrotation Xrotation Yrotation
    JOINT lThigh
    {
      OFFSET 0 -1.70687 -2.19456
      CHANNELS 3 Zrotation Xrotation Yrotation
      JOINT lShin
      {
        OFFSET 0 -36.8199 0.73152
        CHANNELS 3 Zrotation Xrotation Yrotation
        JOINT lFoot
        {
          OFFSET -0.73152 -45.1104 -5.12064
          CHANNELS 3 Zrotation Xrotation Yrotation
          End Site
          {
            OFFSET 1.1221 -3.69964 12.103
          }
        }
      }
    }
  }
}
MOTION
Frames:	4
Frame Time:	0.00833333
41.979 -0.418712 -114.705 0.558732 -0.000783291 -0.00981587 -0.734937 -0.00369301 -0.0206932 -0.202629 -0.00499464 -0.0351079 -1.03319e-014 0 -7.45442e-017 -3.11564e-014 3.18055e-015 -2.73329e-016 -0 0 0 -0 0 0 -5.1202e-015 0 9.93923e-017 -1.06611e-013 9.31803e-017 -1.98785e-016 -1.86485e-012 5.55007e-013 -3.18055e-015 -2.13515e-011 -5.8142e-013 -1.97194e-013 -5.03643e-011 -6.20042e-014 -4.23014e-013 -8.69854e-011 -1.11319e-013 -7.29142e-013 -5.03585e-011 -6.20208e-014 -4.32555e-013 7.73091 5.47488 0.417314 -5.03656e-011 -6.24184e-014 -4.19833e-013 2.90554 0.965183 0.102902 -5.03571e-011 -6.1822e-014 -4.21424e-013 10.2786 0.731801 0.0259123 -5.03687e-011 -6.12257e-014 -4.10292e-013 2.22167 -0.733487 -0.20892 -5.21694e-015 0 -1.98785e-016 -1.10126e-013 2.73329e-016 -2.38542e-015 -1.86549e-012 -5.58982e-013 3.18055e-015 -2.13465e-011 5.51702e-013 -1.94014e-013 -5.03497e-011 -2.2441e-014 -4.23014e-013 -8.69397e-011 -3.81667e-014 -7.23576e-013 -5.03573e-011 -2.0276e-014 -4.13472e-013 -7.73091 5.47488 -0.417314 -5.03509e-011 -2.20651e-014 -4.23014e-013 -2.90554 0.965183 -0.102902 -5.03553e-011 -2.26615e-014 -4.22219e-013 -10.2786 0.731801 -0.0259123 -5.03484e-011 -2.10712e-014 -4.23014e-013 -2.22167 -0.733487 0.20892 -2.03217e-016 0 -3.88251e-019 -0.0357062 -2.13141 -0.0183419 -0.00889002 -1.69185 -0.0749799 -0.520984 3.82294 0.13803 2.03217e-016 0 3.88251e-019 -1.08523 -4.91166 0.0910983 0.00130393 3.34411 -0.00254286 0.533125 1.56735 -0.0930904 
41.741 15.3036 -80.0056 0.132929 -6.70311 -0.822533 0.0493754 14.486 0.249521 0.714964 -0.398502 0.154171 -2.8101 -0.675318 -1.21691 4.74237 -5.14589 -0.73865 -0 0 0 -0 0 0 -1.04351e-014 2.73571e-014 -2.39136e-014 16.6215 15.8824 15.3622 -10.8473 -7.7279 12.8255 0.0105807 2.28208 0.319807 -1.6082e-010 2.49535e-010 -1.90702e-010 -2.7961e-010 4.22566e-010 -3.28101e-010 -1.60815e-010 2.49535e-010 -1.9071e-010 7.73091 5.47488 0.417314 -1.60821e-010 2.49542e-010 -1.90701e-010 2.90554 0.965183 0.102902 -1.60812e-010 2.49535e-010 -1.90701e-010 10.2786 0.731801 0.0259123 -1.60824e-010 2.49536e-010 -1.9069e-010 2.22167 -0.733487 -0.20892 -1.05001e-014 2.73583e-014 -2.4138e-014 -16.9623 16.9964 -15.9993 10.0675 -6.92809 -12.3472 -0.246141 11.0441 -1.45006 -2.79479e-011 2.09802e-010 3.52424e-010 -3.66224e-011 3.35274e-010 6.07383e-010 -2.79586e-011 2.0981e-010 3.52437e-010 -7.73091 5.47488 -0.417314 -2.79484e-011 2.09802e-010 3.52425e-010 -2.90554 0.965183 -0.102902 -2.79528e-011 2.09801e-010 3.52425e-010 -10.2786 0.731801 -0.0259123 -2.7947e-011 2.09803e-010 3.52425e-010 -2.22167 -0.733487 0.20892 -2.03217e-016 0 -3.88251e-019 -8.99797 -14.2771 -5.52629 3.0781 22.9438 -0.0257506 1.88466 -0.755672 1.23814 2.03217e-016 0 3.88251e-019 9.58096 -15.3571 5.72075 -2.89147 26.6544 -0.0436556 -0.762409 -3.78473 -4.67067 
41.7327 15.3268 -80.0049 -0.531604 -13.7839 -1.72241 0.711134 29.8035 0.601196 1.68617 -0.813664 0.355338 -5.80693 -1.38966 -2.50499 9.61122 -10.564 -1.54554 -0 0 0 -0 0 0 -1.65343e-014 5.86402e-014 -5.06746e-014 24.3304 28.6938 35.1951 -18.5782 -14.5888 27.0784 -0.00602534 4.69646 0.659879 -2.92041e-010 5.40405e-010 -4.13156e-010 -5.08393e-010 9.15294e-010 -7.10875e-010 -2.92037e-010 5.40405e-010 -4.13162e-010 7.73091 5.47488 0.417314 -2.92042e-010 5.4042e-010 -4.13157e-010 2.90554 0.965183 0.102902 -2.92032e-010 5.40405e-010 -4.13155e-010 10.2786 0.731801 0.0259123 -2.92044e-010 5.40407e-010 -4.13145e-010 2.22167 -0.733487 -0.20892 -1.65644e-014 5.86427e-014 -5.08174e-014 -23.7856 30.3364 -37.184 17.4965 -13.1702 -25.9424 0.147724 22.6997 -3.17431 -6.62309e-012 4.58975e-010 7.56948e-010 1.3543e-011 7.346e-010 1.30464e-009 -6.63722e-012 4.58991e-010 7.56966e-010 -7.73091 5.47488 -0.417314 -6.62273e-012 4.58974e-010 7.5695e-010 -2.90554 0.965183 -0.102902 -6.62722e-012 4.58974e-010 7.5695e-010 -10.2786 0.731801 -0.0259123 -6.62256e-012 4.58975e-010 7.56951e-010 -2.22167 -0.733487 0.20892 -2.03217e-016 0 -3.88251e-019 -21.2672 -26.709 -12.3289 6.28301 48.9871 0.046484 4.61926 -5.59091 2.41305 2.03217e-016 0 3.88251e-019 23.3123 -25.9952 12.5406 -5.89451 51.2977 -0.123615 -3.06812 -9.33572 -9.61629 
41.732 15.3149 -80.0033 -1.32042 -20.0909 -2.58872 1.07913 43.4609 1.05556 2.55795 -1.18547 0.532832 -8.51635 -2.0223 -3.65274 13.8165 -15.4272 -2.28955 -0 0 0 -0 0 0 -2.10649e-014 8.20714e-014 -7.19395e-014 23.6758 32.8793 56.2454 -22.5925 -18.487 40.6106 -0.0451486 6.84539 0.965544 -3.81732e-010 7.4873e-010 -5.7126e-010 -6.6486e-010 1.26792e-009 -9.82846e-010 -3.81729e-010 7.48729e-010 -5.71265e-010 7.73091 5.47488 0.417314 -3.81733e-010 7.48751e-010 -5.71262e-010 2.90554 0.965183 0.102902 -3.81723e-010 7.48729e-010 -5.71259e-010 10.2786 0.731801 0.0259123 -3.81734e-010 7.48732e-010 -5.7125e-010 2.22167 -0.733487 -0.20892 -2.10664e-014 8.2075e-014 -7.20163e-014 -21.7482 33.7587 -59.6578 21.6226 -16.8951 -38.7233 1.21114 33.0389 -5.09515 1.68556e-011 6.29451e-010 1.05812e-009 6.40121e-011 1.0059e-009 1.8236e-009 1.68388e-011 6.29472e-010 1.05814e-009 -7.73091 5.47488 -0.417314 1.68567e-011 6.29449e-010 1.05812e-009 -2.90554 0.965183 -0.102902 1.68521e-011 6.29449e-010 1.05812e-009 -10.2786 0.731801 -0.0259123 1.68559e-011 6.2945e-010 1.05812e-009 -2.22167 -0.733487 0.20892 -2.03217e-016 0 -3.88251e-019 -35.323 -36.9933 -20.225 8.97202 72.2151 0.257835 7.22913 -9.89541 3.49065 2.03217e-016 0 3.88251e-019 38.1336 -34.77 20.0609 -8.36284 73.2748 -0.389087 -5.95704 -14.0988 -14.2326 
